<svg width="16" height="15" viewBox="0 0 16 15" fill="none" xmlns="http://www.w3.org/2000/svg">
<path fill-rule="evenodd" clip-rule="evenodd" d="M15.573 6.38974H15.5733L11.5737 9.20856L13.1144 13.7948C13.1382 13.8664 13.1516 13.9423 13.1516 14.0216C13.1516 14.4224 12.8184 14.7468 12.4072 14.7468C12.2442 14.7468 12.0938 14.6956 11.971 14.609L11.9707 14.6093L7.94061 11.769L3.9105 14.6093L3.91025 14.609C3.78767 14.6956 3.63705 14.7468 3.47402 14.7468C3.06284 14.7468 2.72958 14.4224 2.72958 14.0216C2.72958 13.9423 2.74298 13.8664 2.76705 13.7948L4.30778 9.20856L0.307947 6.38974H0.308195C0.121591 6.25798 0 6.04379 0 5.80204C0 5.4017 0.333257 5.07678 0.744432 5.07678H5.6954L7.22893 0.512513C7.32223 0.215884 7.60561 0 7.94061 0C8.27585 0 8.55898 0.215884 8.65229 0.512513L10.1858 5.07678H15.1368C15.548 5.07678 15.8812 5.4017 15.8812 5.80204C15.8812 6.04379 15.7599 6.25798 15.573 6.38974" fill="#FFD300"/>
</svg>
