<svg width="150" height="24" viewBox="0 0 150 24" fill="none" xmlns="http://www.w3.org/2000/svg">
<path d="M6.40548 9.52518L0 14.6502V15.7182L6.09581 12.7282L6.40548 9.52518ZM14.1552 16.1452L10.7448 23.7252L9.71226 23.9392L11.1581 17.1062L14.1552 16.1452Z" fill="#231F20"/>
<path d="M6.096 18.1732C5.8889 17.2132 5.68277 10.0592 7.12955 6.32316C8.36826 3.01316 10.9521 0.343163 13.9483 0.0231629C15.4986 -0.0838371 17.3576 0.130163 19.1141 1.73116C20.9741 3.22616 21.4908 4.82816 21.6979 6.42916C22.1112 9.63216 20.0441 12.7292 17.255 14.6502C14.0518 16.8922 6.50922 18.2802 6.30309 18.2802C6.19955 18.2802 6.096 18.2802 6.096 18.1732Z" fill="#FFD300"/>
<path d="M14.9817 10.9132C16.9218 10.9132 18.4946 9.28796 18.4946 7.28317C18.4946 5.27837 16.9218 3.65317 14.9817 3.65317C13.0415 3.65317 11.4688 5.27837 11.4688 7.28317C11.4688 9.28796 13.0415 10.9132 14.9817 10.9132Z" fill="#231F20"/>
<path d="M14.9814 9.31915C16.046 9.31915 16.9102 8.42715 16.9102 7.32615C16.9102 6.22515 16.0469 5.33215 14.9814 5.33215C13.916 5.33215 13.0527 6.22515 13.0527 7.32615C13.0527 8.42615 13.916 9.31915 14.9814 9.31915Z" fill="white"/>
<path d="M34.0956 20.3092C32.0295 20.3092 30.066 19.5612 28.5166 18.6002L29.5501 15.8242C30.996 16.7852 32.6498 17.4262 34.1992 17.4262C36.2653 17.4262 37.0927 16.3582 37.0927 15.2912C37.0927 14.1162 36.4724 13.3692 33.3727 12.1942C30.066 10.9142 28.9298 9.31215 28.9298 7.17615C28.9298 4.50715 30.996 2.05215 34.6124 2.05215C36.4724 2.05215 38.2289 2.58615 39.365 3.22615L38.436 6.00215C37.4024 5.46815 35.9556 4.82815 34.6134 4.82815C32.856 4.82815 32.0295 5.89515 32.0295 7.07015C32.0295 8.24415 32.9585 8.88515 35.3353 9.84615C39.1579 11.3402 40.1914 12.9422 40.1914 15.2912C40.295 18.3872 37.9192 20.3092 34.0956 20.3092ZM49.3869 14.8632V19.9882H46.3908V2.37315H51.6602C56.2066 2.37315 58.4798 4.93515 58.4798 8.67315C58.4798 12.4092 56.2056 14.9712 51.0408 14.9712H49.3869V14.8652V14.8632ZM49.3869 5.25515V12.1952H51.3505C54.1405 12.1952 55.1731 10.5932 55.1731 8.67115C55.1731 6.74916 54.244 5.25515 51.3505 5.25515H49.3869ZM64.0589 2.37215H67.055V12.7282C67.055 16.1452 68.5018 17.5332 71.0847 17.5332C73.6685 17.5332 75.2169 16.1452 75.2169 12.7282V2.37315H78.214V12.7292C78.214 17.9612 75.3205 20.3092 71.0847 20.3092C66.8489 20.3092 64.0589 17.9612 64.0589 12.7292V2.37315V2.37215ZM83.3798 2.37215H97.7411V5.25515H92.1621V19.9882H89.166V5.25515H83.4834V2.37215H83.3798ZM102.908 2.26515H103.838L114.377 13.5822V2.37215H117.373V20.0952H116.546L105.904 9.09815V20.0952H102.908V2.26515ZM124.812 2.37215H127.808V19.9882H124.812V2.37215ZM135.247 2.37215H138.243V11.0202L145.476 2.37215H149.091L141.239 11.6612L149.506 19.9882H145.786L138.243 12.4082V19.9882H135.247V2.37215Z" fill="#231F20"/>
</svg>
